<?xml version="1.0" encoding="utf-8"?>
<!-- Generator: Adobe Illustrator 21.1.0, SVG Export Plug-In . SVG Version: 6.00 Build 0)  -->
<svg version="1.1" id="Слой_1" xmlns="http://www.w3.org/2000/svg" xmlns:xlink="http://www.w3.org/1999/xlink" x="0px" y="0px"
	 viewBox="0 0 4096 4096" style="enable-background:new 0 0 4096 4096;" xml:space="preserve">
<style type="text/css">
	.st0{fill:#120055;}
	.st1{fill:#FFD33F;}
	.st2{fill:#550D00;}
	.st3{fill:#FFFFFF;}
	.st4{font-family:'ArialMT';}
	.st5{font-size:12px;}
	.st6{fill:none;stroke:#000000;stroke-width:80;stroke-miterlimit:10;}
</style>
<g>
	<g>
		<path class="st0" d="M2244.6,1637.4c7.3,7.3,14.6,14.6,22,22c19.9,19.9,39.8,39.8,59.7,59.7c29.4,29.4,58.9,58.9,88.3,88.3
			c35.9,35.9,71.9,71.9,107.8,107.8c39.2,39.2,78.5,78.5,117.7,117.7c39.6,39.6,79.2,79.2,118.8,118.8c37,37,74.1,74.1,111.1,111.1
			c31.3,31.3,62.6,62.6,93.9,93.9c22.5,22.5,45,45,67.5,67.5c10.6,10.6,21.2,21.3,31.9,31.9c0.4,0.4,0.9,0.9,1.3,1.3
			c10.9,10.9,27,17.6,42.4,17.6c14.7,0,32.3-6.5,42.4-17.6c10.5-11.4,18.3-26.4,17.6-42.4c-0.7-15.9-6.1-30.9-17.6-42.4
			c-7.3-7.3-14.6-14.6-22-22c-19.9-19.9-39.8-39.8-59.7-59.7c-29.4-29.4-58.9-58.9-88.3-88.3c-35.9-35.9-71.9-71.9-107.8-107.8
			c-39.2-39.2-78.5-78.5-117.7-117.7c-39.6-39.6-79.2-79.2-118.8-118.8c-37-37-74.1-74.1-111.1-111.1
			c-31.3-31.3-62.6-62.6-93.9-93.9c-22.5-22.5-45-45-67.5-67.5c-10.6-10.6-21.2-21.3-31.9-31.9c-0.4-0.4-0.9-0.9-1.3-1.3
			c-10.9-10.9-27-17.6-42.4-17.6c-14.7,0-32.3,6.5-42.4,17.6c-10.5,11.4-18.3,26.4-17.6,42.4
			C2227.7,1610.9,2233.1,1625.9,2244.6,1637.4L2244.6,1637.4z"/>
	</g>
</g>
<g>
	<g>
		<path class="st0" d="M2010.6,1322.6c-2.4,2.4-4.8,4.8-7.3,7.3c-6.9,6.9-13.9,13.9-20.8,20.8c-11,11-22,22-33,33
			c-14.5,14.5-29,29-43.5,43.5c-17.5,17.5-35.1,35.1-52.6,52.6c-20.1,20.1-40.2,40.2-60.3,60.3c-22.2,22.2-44.3,44.3-66.5,66.5
			c-23.7,23.7-47.5,47.5-71.2,71.2c-25,25-49.9,49.9-74.9,74.9c-25.5,25.5-50.9,50.9-76.4,76.4c-25.6,25.6-51.1,51.1-76.7,76.7
			c-25.2,25.2-50.4,50.4-75.6,75.6c-24.3,24.3-48.7,48.7-73,73c-23,23-46,46-69,69c-21.3,21.3-42.5,42.5-63.8,63.8
			c-18.8,18.8-37.7,37.7-56.5,56.5c-16,16-32.1,32.1-48.1,48.1c-12.7,12.7-25.5,25.5-38.2,38.2c-8.9,8.9-17.9,17.9-26.8,26.8
			c-4.7,4.7-9.4,9.4-14.1,14.1c-0.6,0.6-1.1,1.1-1.7,1.7c-10.9,10.9-17.6,27-17.6,42.4c0,14.7,6.5,32.3,17.6,42.4
			c11.4,10.5,26.4,18.3,42.4,17.6c15.9-0.7,30.9-6.1,42.4-17.6c2.4-2.4,4.8-4.8,7.3-7.3c6.9-6.9,13.9-13.9,20.8-20.8
			c11-11,22-22,33-33c14.5-14.5,29-29,43.5-43.5c17.5-17.5,35.1-35.1,52.6-52.6c20.1-20.1,40.2-40.2,60.3-60.3
			c22.2-22.2,44.3-44.3,66.5-66.5c23.7-23.7,47.5-47.5,71.2-71.2c25-25,49.9-49.9,74.9-74.9c25.5-25.5,50.9-50.9,76.4-76.4
			c25.6-25.6,51.1-51.1,76.7-76.7c25.2-25.2,50.4-50.4,75.6-75.6c24.3-24.3,48.7-48.7,73-73c23-23,46-46,69-69
			c21.3-21.3,42.5-42.5,63.8-63.8c18.8-18.8,37.7-37.7,56.5-56.5c16-16,32.1-32.1,48.1-48.1c12.7-12.7,25.5-25.5,38.2-38.2
			c8.9-8.9,17.9-17.9,26.8-26.8c4.7-4.7,9.4-9.4,14.1-14.1c0.6-0.6,1.1-1.1,1.7-1.7c10.9-10.9,17.6-27,17.6-42.4
			c0-14.7-6.5-32.3-17.6-42.4c-11.4-10.5-26.4-18.3-42.4-17.6C2037.1,1305.7,2022.1,1311.1,2010.6,1322.6L2010.6,1322.6z"/>
	</g>
</g>
<g>
	<g>
		<path class="st1" d="M2437,2465c0,20-1.4,39.9-4,59.7c0.7-5.3,1.4-10.6,2.1-16c-5.3,38.4-15.5,75.9-30.6,111.6c2-4.8,4-9.6,6-14.3
			c-14.8,34.8-34,67.6-57.1,97.6c3.1-4,6.3-8.1,9.4-12.1c-23,29.7-49.7,56.4-79.4,79.4c4-3.1,8.1-6.3,12.1-9.4
			c-30,23.1-62.8,42.3-97.6,57.1c4.8-2,9.6-4,14.3-6c-35.7,15-73.2,25.3-111.6,30.6c5.3-0.7,10.6-1.4,16-2.1
			c-39.6,5.3-79.8,5.3-119.4,0c5.3,0.7,10.6,1.4,16,2.1c-38.4-5.3-75.9-15.5-111.6-30.6c4.8,2,9.6,4,14.3,6
			c-34.8-14.8-67.6-34-97.6-57.1c4,3.1,8.1,6.3,12.1,9.4c-29.7-23-56.4-49.7-79.4-79.4c3.1,4,6.3,8.1,9.4,12.1
			c-23.1-30-42.3-62.8-57.1-97.6c2,4.8,4,9.6,6,14.3c-15-35.7-25.3-73.2-30.6-111.6c0.7,5.3,1.4,10.6,2.1,16
			c-5.3-39.6-5.3-79.8,0-119.4c-0.7,5.3-1.4,10.6-2.1,16c5.3-38.4,15.5-75.9,30.6-111.6c-2,4.8-4,9.6-6,14.3
			c14.8-34.8,34-67.6,57.1-97.6c-3.1,4-6.3,8.1-9.4,12.1c23-29.7,49.7-56.4,79.4-79.4c-4,3.1-8.1,6.3-12.1,9.4
			c30-23.1,62.8-42.3,97.6-57.1c-4.8,2-9.6,4-14.3,6c35.7-15,73.2-25.3,111.6-30.6c-5.3,0.7-10.6,1.4-16,2.1
			c39.6-5.3,79.8-5.3,119.4,0c-5.3-0.7-10.6-1.4-16-2.1c38.4,5.3,75.9,15.5,111.6,30.6c-4.8-2-9.6-4-14.3-6
			c34.8,14.8,67.6,34,97.6,57.1c-4-3.1-8.1-6.3-12.1-9.4c29.7,23,56.4,49.7,79.4,79.4c-3.1-4-6.3-8.1-9.4-12.1
			c23.1,30,42.3,62.8,57.1,97.6c-2-4.8-4-9.6-6-14.3c15,35.7,25.3,73.2,30.6,111.6c-0.7-5.3-1.4-10.6-2.1-16
			C2435.6,2425.1,2437,2445,2437,2465c0,15.4,6.7,31.5,17.6,42.4c10.4,10.4,27.5,18.2,42.4,17.6c15.5-0.7,31.6-5.8,42.4-17.6
			c10.8-11.7,17.6-26.2,17.6-42.4c0-28.6-3.1-56.9-7.6-85.2c-3.6-22.7-9-45.2-16.1-67.1c-15.3-47.2-37.2-92.8-66-133.2
			c-15.6-21.9-32.5-43.1-51.2-62.5c-18.8-19.5-39.5-36.5-60.9-53c-39.4-30.2-83.6-52.8-130.1-69.9c-48-17.7-99.5-26.8-150.4-28.8
			c-23.7-0.9-47.6,0-71.1,2.9c-27.9,3.4-55.5,7.9-82.6,15.5c-26.4,7.5-52,17.7-76.9,29.1c-20.4,9.3-40.1,20.2-58.8,32.6
			c-41,27-79,59.6-110.2,97.5c-17.2,20.8-33.3,42.6-47.2,65.7c-14.1,23.5-25.3,48.1-35.7,73.4c-19.4,47.3-29.7,97.7-33.6,148.6
			c-4,51.4,1.1,104.1,13.2,154.1c5.4,22.1,12.5,43.9,21.2,64.9c10.5,25.2,21.8,49.8,35.9,73.3c25.4,41.9,57.2,80.9,93.9,113.5
			c36.9,32.8,78.2,61.1,123.2,81.5c25,11.3,50.6,21.4,77.1,28.8c27.1,7.5,54.8,12,82.7,15.2c51.8,6,104.5,2.4,155.5-8
			c48.9-9.9,96.8-28.4,140.4-52.7c42.6-23.8,82.3-54.5,116.1-89.8c33.9-35.5,63.5-76.3,85.5-120.3c22.5-45.1,39.2-93.2,46.9-143.1
			c4.2-27.6,7.2-55.2,7.2-83.1c0-15.4-6.7-31.6-17.6-42.4c-10.4-10.4-27.5-18.2-42.4-17.6c-15.5,0.7-31.6,5.8-42.4,17.6
			C2443.8,2434.3,2437,2448.7,2437,2465z"/>
	</g>
</g>
<g>
	<g>
		<path class="st2" d="M3141.4,3452.6c-4.8-4.8-9.6-9.6-14.5-14.5c-13.8-13.8-27.6-27.6-41.5-41.5c-22-22-43.9-43.9-65.9-65.9
			c-28.9-28.9-57.9-57.9-86.8-86.8c-35-35-70-70-105-105c-40.1-40.1-80.2-80.2-120.4-120.4c-44.2-44.2-88.5-88.5-132.7-132.7
			c-47.4-47.4-94.8-94.8-142.2-142.2c-49.8-49.8-99.7-99.7-149.5-149.5c-50.8-50.8-101.6-101.6-152.4-152.4
			c-51-51-102.1-102.1-153.1-153.1c-50.3-50.3-100.6-100.6-150.9-150.9c-48.6-48.6-97.2-97.2-145.8-145.8
			c-45.9-45.9-91.8-91.8-137.7-137.7c-42.4-42.4-84.9-84.9-127.3-127.3c-37.6-37.6-75.2-75.2-112.8-112.8c-32-32-64-64-96-96
			c-25.4-25.4-50.8-50.8-76.2-76.2c-17.9-17.9-35.7-35.7-53.6-53.6c-9.4-9.4-18.7-18.7-28.1-28.1c-1.1-1.1-2.3-2.3-3.4-3.4
			c-22.2-22.2-62.9-23.9-84.9,0c-22,24-23.7,61.1,0,84.9c4.8,4.8,9.6,9.6,14.5,14.5c13.8,13.8,27.6,27.6,41.5,41.5
			c22,22,43.9,43.9,65.9,65.9c28.9,28.9,57.9,57.9,86.8,86.8c35,35,70,70,105,105c40.1,40.1,80.2,80.2,120.4,120.4
			c44.2,44.2,88.5,88.5,132.7,132.7c47.4,47.4,94.8,94.8,142.2,142.2c49.8,49.8,99.7,99.7,149.5,149.5
			c50.8,50.8,101.6,101.6,152.4,152.4c51,51,102.1,102.1,153.1,153.1c50.3,50.3,100.6,100.6,150.9,150.9
			c48.6,48.6,97.2,97.2,145.8,145.8c45.9,45.9,91.8,91.8,137.7,137.7c42.4,42.4,84.9,84.9,127.3,127.3
			c37.6,37.6,75.2,75.2,112.8,112.8c32,32,64,64,96,96c25.4,25.4,50.8,50.8,76.2,76.2c17.9,17.9,35.7,35.7,53.6,53.6
			c9.4,9.4,18.7,18.7,28.1,28.1c1.1,1.1,2.3,2.3,3.4,3.4c22.2,22.2,62.9,23.9,84.9,0C3163.4,3513.5,3165.1,3476.3,3141.4,3452.6
			L3141.4,3452.6z"/>
	</g>
</g>
<g>
	<g>
		<path class="st2" d="M2289.4,2293.4c7.7-7.7,15.4-15.4,23.2-23.2c20.8-20.8,41.7-41.7,62.5-62.5c31-31,62-62,93-93
			c37.7-37.7,75.4-75.4,113.2-113.2c41.3-41.3,82.6-82.6,123.9-123.9c41.7-41.7,83.4-83.4,125.1-125.1
			c38.9-38.9,77.8-77.8,116.6-116.6c32.9-32.9,65.9-65.9,98.8-98.8c23.5-23.5,47.1-47.1,70.6-70.6c11.2-11.2,22.5-22.4,33.6-33.6
			c0.5-0.5,0.9-0.9,1.4-1.4c10.9-10.9,17.6-27,17.6-42.4c0-14.7-6.5-32.3-17.6-42.4c-11.4-10.5-26.4-18.3-42.4-17.6
			c-15.9,0.7-30.9,6.1-42.4,17.6c-7.7,7.7-15.4,15.4-23.2,23.2c-20.8,20.8-41.7,41.7-62.5,62.5c-31,31-62,62-93,93
			c-37.7,37.7-75.4,75.4-113.2,113.2c-41.3,41.3-82.6,82.6-123.9,123.9c-41.7,41.7-83.4,83.4-125.1,125.1
			c-38.9,38.9-77.8,77.8-116.6,116.6c-32.9,32.9-65.9,65.9-98.8,98.8c-23.5,23.5-47.1,47.1-70.6,70.6
			c-11.2,11.2-22.5,22.4-33.6,33.6c-0.5,0.5-0.9,0.9-1.4,1.4c-10.9,10.9-17.6,27-17.6,42.4c0,14.7,6.5,32.3,17.6,42.4
			c11.4,10.5,26.4,18.3,42.4,17.6C2262.9,2310.3,2277.9,2304.9,2289.4,2293.4L2289.4,2293.4z"/>
	</g>
</g>
<g>
	<g>
		<path class="st2" d="M1038.4,3546.4c7.6-7.6,15.3-15.3,22.9-22.9c20.6-20.6,41.2-41.2,61.9-61.9c30.7-30.7,61.3-61.3,92-92
			c37.2-37.2,74.4-74.4,111.6-111.6c41-41,81.9-81.9,122.9-122.9c41.1-41.1,82.2-82.2,123.3-123.3c38.5-38.5,77.1-77.1,115.6-115.6
			c32.4-32.4,64.8-64.8,97.2-97.2c23.4-23.4,46.8-46.8,70.2-70.2c11-11,22-22,33.1-33.1c0.5-0.5,0.9-0.9,1.4-1.4
			c10.9-10.9,17.6-27,17.6-42.4c0-14.7-6.5-32.3-17.6-42.4c-11.4-10.5-26.4-18.3-42.4-17.6c-15.9,0.7-30.9,6.1-42.4,17.6
			c-7.6,7.6-15.3,15.3-22.9,22.9c-20.6,20.6-41.2,41.2-61.9,61.9c-30.7,30.7-61.3,61.3-92,92c-37.2,37.2-74.4,74.4-111.6,111.6
			c-41,41-81.9,81.9-122.9,122.9c-41.1,41.1-82.2,82.2-123.3,123.3c-38.5,38.5-77.1,77.1-115.6,115.6
			c-32.4,32.4-64.8,64.8-97.2,97.2c-23.4,23.4-46.8,46.8-70.2,70.2c-11,11-22,22-33.1,33.1c-0.5,0.5-0.9,0.9-1.4,1.4
			c-10.9,10.9-17.6,27-17.6,42.4c0,14.7,6.5,32.3,17.6,42.4c11.4,10.5,26.4,18.3,42.4,17.6
			C1011.9,3563.3,1026.9,3557.9,1038.4,3546.4L1038.4,3546.4z"/>
	</g>
</g>
<g>
	<g>
		<path class="st3" d="M3309,3657c-22.8,0-45.6,0-68.4,0c-61.5,0-123,0-184.5,0c-91.2,0-182.3,0-273.5,0c-111.2,0-222.5,0-333.7,0
			c-121.4,0-242.8,0-364.2,0c-123.4,0-246.8,0-370.1,0c-114.3,0-228.5,0-342.8,0c-96.9,0-193.8,0-290.7,0c-69.7,0-139.3,0-209,0
			c-32.9,0-65.9-0.6-98.8,0c-1.4,0-2.9,0-4.3,0c20,20,40,40,60,60c0-22.8,0-45.6,0-68.4c0-61.5,0-123,0-184.5
			c0-91.2,0-182.3,0-273.5c0-111.2,0-222.5,0-333.7c0-121.4,0-242.8,0-364.2c0-123.4,0-246.8,0-370.1c0-114.3,0-228.5,0-342.8
			c0-96.9,0-193.8,0-290.7c0-69.7,0-139.3,0-209c0-32.9,0.6-65.9,0-98.8c0-1.4,0-2.9,0-4.3c-20,20-40,40-60,60c22.8,0,45.6,0,68.4,0
			c61.5,0,123,0,184.5,0c91.2,0,182.3,0,273.5,0c111.2,0,222.5,0,333.7,0c121.4,0,242.8,0,364.2,0c123.4,0,246.8,0,370.1,0
			c114.3,0,228.5,0,342.8,0c96.9,0,193.8,0,290.7,0c69.7,0,139.3,0,209,0c32.9,0,65.9,0.6,98.8,0c1.4,0,2.9,0,4.3,0
			c-20-20-40-40-60-60c0,22.8,0,45.6,0,68.4c0,61.5,0,123,0,184.5c0,91.2,0,182.3,0,273.5c0,111.2,0,222.5,0,333.7
			c0,121.4,0,242.8,0,364.2c0,123.4,0,246.8,0,370.1c0,114.3,0,228.5,0,342.8c0,96.9,0,193.8,0,290.7c0,69.7,0,139.3,0,209
			c0,32.9-0.4,65.9,0,98.8c0,1.4,0,2.9,0,4.3c0,31.4,27.6,61.5,60,60c32.5-1.5,60-26.4,60-60c0-22.8,0-45.6,0-68.4
			c0-61.5,0-123,0-184.5c0-91.2,0-182.3,0-273.5c0-111.2,0-222.5,0-333.7c0-121.4,0-242.8,0-364.2c0-123.4,0-246.8,0-370.1
			c0-114.3,0-228.5,0-342.8c0-96.9,0-193.8,0-290.7c0-69.7,0-139.3,0-209c0-32.9,0.4-65.9,0-98.8c0-1.4,0-2.9,0-4.3
			c0-32.4-27.5-60-60-60c-22.8,0-45.6,0-68.4,0c-61.5,0-123,0-184.5,0c-91.2,0-182.3,0-273.5,0c-111.2,0-222.5,0-333.7,0
			c-121.4,0-242.8,0-364.2,0c-123.4,0-246.8,0-370.1,0c-114.3,0-228.5,0-342.8,0c-96.9,0-193.8,0-290.7,0c-69.7,0-139.3,0-209,0
			c-32.9,0-65.9-0.4-98.8,0c-1.4,0-2.9,0-4.3,0c-32.4,0-60,27.5-60,60c0,22.8,0,45.6,0,68.4c0,61.5,0,123,0,184.5
			c0,91.2,0,182.3,0,273.5c0,111.2,0,222.5,0,333.7c0,121.4,0,242.8,0,364.2c0,123.4,0,246.8,0,370.1c0,114.3,0,228.5,0,342.8
			c0,96.9,0,193.8,0,290.7c0,69.7,0,139.3,0,209c0,32.9-0.4,65.9,0,98.8c0,1.4,0,2.9,0,4.3c0,32.4,27.5,60,60,60
			c22.8,0,45.6,0,68.4,0c61.5,0,123,0,184.5,0c91.2,0,182.3,0,273.5,0c111.2,0,222.5,0,333.7,0c121.4,0,242.8,0,364.2,0
			c123.4,0,246.8,0,370.1,0c114.3,0,228.5,0,342.8,0c96.9,0,193.8,0,290.7,0c69.7,0,139.3,0,209,0c32.9,0,65.9,0.4,98.8,0
			c1.4,0,2.9,0,4.3,0c31.4,0,61.5-27.6,60-60C3367.5,3684.5,3342.6,3657,3309,3657z"/>
	</g>
</g>
<text class="st4 st5"> </text>
<path class="st6" d="M4309,1077"/>
</svg>
